<svg width="40" height="76" viewBox="0 0 24 24" fill="none" xmlns="http://www.w3.org/2000/svg">
    <path d="M20.548 3.452a11.938 11.938 0 0 0-8.487-3.443c-6.63 0-12 5.373-12 12 0 2.12.552 4.198 1.602 6.036l-1.632 6.01 6.153-1.61a11.924 11.924 0 0 0 5.878 1.508h.004c6.627 0 12.002-5.373 12.002-12.002 0-3.203-1.247-6.214-3.453-8.487zm-8.549 18.278a9.923 9.923 0 0 1-5.268-1.495l-.38-.225-3.652.956.972-3.578-.246-.392a9.963 9.963 0 0 1-1.59-5.416c0-5.523 4.491-10.016 10.016-10.016a9.975 9.975 0 0 1 9.992 9.991c0 5.523-4.494 10.016-10.016 10.016zm5.494-7.503c-.302-.15-1.79-.883-2.07-.983-.278-.1-.482-.15-.686.15-.198.295-.784.983-.96 1.182-.178.198-.357.222-.661.073-.304-.15-1.285-.474-2.45-1.512-.905-.803-1.516-1.792-1.695-2.095-.178-.302-.02-.464.13-.614.134-.135.298-.352.446-.529.149-.178.199-.297.298-.497.1-.201.05-.375-.025-.525-.074-.15-.686-1.654-.94-2.26-.247-.591-.497-.51-.682-.51h-.586c-.199 0-.486.072-.74.354s-1.04 1.016-1.04 2.481 1.065 2.878 1.214 3.075c.149.198 2.1 3.203 5.092 4.487.713.307 1.27.49 1.703.629.715.227 1.366.195 1.88.118.574-.086 1.79-.729 2.043-1.432.251-.704.251-1.308.175-1.432-.075-.124-.273-.198-.575-.347z" fill="#fff"/>
</svg>
